<svg width="56" height="56" viewBox="0 0 56 56" fill="none" xmlns="http://www.w3.org/2000/svg">
<g clip-path="url(#clip0)">
<path d="M56 0H0V56H56V0Z" fill="white"/>
<path d="M56 0H0V56H56V0Z" fill="#FFEFEF"/>
<g filter="url(#filter0_d)">
<path d="M42.2782 19.2148H14.1985V37.3812H42.2782V19.2148Z" fill="white"/>
<path fill-rule="evenodd" clip-rule="evenodd" d="M37.0437 11.5195C39.4992 11.5195 41.8613 12.49 43.599 14.2314C45.3386 15.9691 46.3109 18.3129 46.3109 20.7666V35.2322C46.3109 40.341 42.1543 44.4792 37.0437 44.4792H18.9543C13.8437 44.4792 9.68896 40.341 9.68896 35.2322V20.7666C9.68896 15.6578 13.8254 11.5195 18.9543 11.5195H37.0437ZM39.9568 23.4945L40.1033 23.348C40.541 22.817 40.541 22.048 40.0832 21.5169C39.8287 21.2441 39.4789 21.0775 39.1145 21.0409C38.73 21.0207 38.3638 21.1507 38.0873 21.4071L29.8309 27.999C28.7688 28.8798 27.2472 28.8798 26.1687 27.999L17.9288 21.4071C17.3593 20.9859 16.5719 21.0409 16.0977 21.5353C15.6033 22.0297 15.5483 22.817 15.9677 23.3664L16.2075 23.6044L24.539 30.1048C25.5644 30.9105 26.8077 31.3499 28.1097 31.3499C29.4079 31.3499 30.6732 30.9105 31.6968 30.1048L39.9568 23.4945Z" fill="#FF3951" fill-opacity="0.01"/>
</g>
<path d="M42.2782 19.2148H14.1985V37.3812H42.2782V19.2148Z" fill="white"/>
<path fill-rule="evenodd" clip-rule="evenodd" d="M37.0437 11.5195C39.4992 11.5195 41.8613 12.49 43.599 14.2314C45.3386 15.9691 46.3109 18.3129 46.3109 20.7666V35.2322C46.3109 40.341 42.1543 44.4792 37.0437 44.4792H18.9543C13.8437 44.4792 9.68896 40.341 9.68896 35.2322V20.7666C9.68896 15.6578 13.8254 11.5195 18.9543 11.5195H37.0437ZM39.9568 23.4945L40.1033 23.348C40.541 22.817 40.541 22.048 40.0832 21.5169C39.8287 21.2441 39.4789 21.0775 39.1145 21.0409C38.73 21.0207 38.3638 21.1507 38.0873 21.4071L29.8309 27.999C28.7688 28.8798 27.2472 28.8798 26.1687 27.999L17.9288 21.4071C17.3593 20.9859 16.5719 21.0409 16.0977 21.5353C15.6033 22.0297 15.5483 22.817 15.9677 23.3664L16.2075 23.6044L24.539 30.1048C25.5644 30.9105 26.8077 31.3499 28.1097 31.3499C29.4079 31.3499 30.6732 30.9105 31.6968 30.1048L39.9568 23.4945Z" fill="#FF3951"/>
</g>
<defs>
<filter id="filter0_d" x="-17.115" y="-8.58348" width="90.2299" height="86.5677" filterUnits="userSpaceOnUse" color-interpolation-filters="sRGB">
<feFlood flood-opacity="0" result="BackgroundImageFix"/>
<feColorMatrix in="SourceAlpha" type="matrix" values="0 0 0 0 0 0 0 0 0 0 0 0 0 0 0 0 0 0 127 0"/>
<feOffset dy="6.70099"/>
<feGaussianBlur stdDeviation="13.402"/>
<feColorMatrix type="matrix" values="0 0 0 0 1 0 0 0 0 0.223529 0 0 0 0 0.317647 0 0 0 0.5 0"/>
<feBlend mode="normal" in2="BackgroundImageFix" result="effect1_dropShadow"/>
<feBlend mode="normal" in="SourceGraphic" in2="effect1_dropShadow" result="shape"/>
</filter>
<clipPath id="clip0">
<rect width="56" height="56" fill="white"/>
</clipPath>
</defs>
</svg>
