<svg width="56" height="56" viewBox="0 0 56 56" fill="none" xmlns="http://www.w3.org/2000/svg">
<g clip-path="url(#clip0)">
<path d="M56 0H0V56H56V0Z" fill="white"/>
<path opacity="0.1" d="M56 0H0V56H56V0Z" fill="#3F80FD"/>
<g filter="url(#filter0_d)">
<path d="M38.293 31.9706C37.1718 31.7294 36.2849 32.2499 35.4996 32.7045C34.6954 33.173 33.1661 34.4136 32.2895 34.0961C27.8015 32.2482 23.5805 28.32 21.7532 23.814C21.4312 22.9187 22.666 21.3797 23.131 20.566C23.5822 19.7783 24.0919 18.883 23.8594 17.7534C23.6493 16.7384 20.9317 13.2804 19.9708 12.3348C19.337 11.7102 18.6878 11.3667 18.0213 11.3111C15.5155 11.2036 12.717 14.547 12.2262 15.3469C10.9965 17.0525 11.0034 19.3219 12.2468 22.0738C15.2434 29.4652 26.577 40.6199 33.9962 43.7292C35.3653 44.3694 36.6173 44.6904 37.7419 44.6904C38.8423 44.6904 39.8223 44.3833 40.6644 43.7743C41.2999 43.4082 44.7804 40.4707 44.6891 37.8976C44.634 37.2417 44.2913 36.5859 43.6748 35.9509C42.7362 34.9809 39.3004 32.1823 38.293 31.9706Z" fill="#3F80FD" fill-opacity="0.01"/>
</g>
<path d="M38.293 31.9706C37.1718 31.7294 36.2849 32.2499 35.4996 32.7045C34.6954 33.173 33.1661 34.4136 32.2895 34.0961C27.8015 32.2482 23.5805 28.32 21.7532 23.814C21.4312 22.9187 22.666 21.3797 23.131 20.566C23.5822 19.7783 24.0919 18.883 23.8594 17.7534C23.6493 16.7384 20.9317 13.2804 19.9708 12.3348C19.337 11.7102 18.6878 11.3667 18.0213 11.3111C15.5155 11.2036 12.717 14.547 12.2262 15.3469C10.9965 17.0525 11.0034 19.3219 12.2468 22.0738C15.2434 29.4652 26.577 40.6199 33.9962 43.7292C35.3653 44.3694 36.6173 44.6904 37.7419 44.6904C38.8423 44.6904 39.8223 44.3833 40.6644 43.7743C41.2999 43.4082 44.7804 40.4707 44.6891 37.8976C44.634 37.2417 44.2913 36.5859 43.6748 35.9509C42.7362 34.9809 39.3004 32.1823 38.293 31.9706Z" fill="#3F80FD"/>
</g>
<defs>
<filter id="filter0_d" x="-5.44576" y="-0.659147" width="66.8915" height="66.8915" filterUnits="userSpaceOnUse" color-interpolation-filters="sRGB">
<feFlood flood-opacity="0" result="BackgroundImageFix"/>
<feColorMatrix in="SourceAlpha" type="matrix" values="0 0 0 0 0 0 0 0 0 0 0 0 0 0 0 0 0 0 127 0"/>
<feOffset dy="4.7871"/>
<feGaussianBlur stdDeviation="8.37742"/>
<feColorMatrix type="matrix" values="0 0 0 0 0.203922 0 0 0 0 0.619608 0 0 0 0 1 0 0 0 0.49 0"/>
<feBlend mode="normal" in2="BackgroundImageFix" result="effect1_dropShadow"/>
<feBlend mode="normal" in="SourceGraphic" in2="effect1_dropShadow" result="shape"/>
</filter>
<clipPath id="clip0">
<rect width="56" height="56" fill="white"/>
</clipPath>
</defs>
</svg>
